<svg width="125" height="124" viewBox="0 0 125 124" fill="none" xmlns="http://www.w3.org/2000/svg">
<path d="M67.9467 103.635C70.272 105.704 72.4893 107.68 74.7066 109.655L74.868 109.528C73.9026 107.317 72.9346 105.107 71.9626 102.883C70.7 103.119 69.4454 103.355 67.9467 103.635ZM100.979 77.9733C103.943 76.984 106.729 76.056 109.515 75.128L109.484 74.9027C107.104 74.64 104.723 74.376 102.316 74.1093C101.897 75.3187 101.48 76.5227 100.979 77.9733ZM87.9066 95.236C90.9666 95.8667 93.8533 96.46 96.7413 97.0546L96.832 96.8667C94.892 95.4374 92.9533 94.0067 90.9973 92.564C90.0333 93.3973 89.0493 94.2467 87.9066 95.236ZM103.628 56.5133C105.711 54.168 107.685 51.9466 109.657 49.724L109.524 49.5694C107.305 50.5374 105.085 51.5066 102.855 52.48C103.089 53.7093 103.336 54.988 103.628 56.5133ZM46.4426 100.9C47.4266 103.855 48.3613 106.661 49.296 109.468L49.5333 109.424C49.7987 107.047 50.0626 104.668 50.3293 102.265C49.1186 101.839 47.8933 101.409 46.4426 100.9ZM97.06 27.7013L96.8733 27.6147C95.4253 29.568 93.9773 31.52 92.496 33.5147C93.3173 34.456 94.216 35.4867 95.2173 36.636C95.8507 33.564 96.456 30.6333 97.06 27.7013ZM27.38 96.728L27.5613 96.8147C29.0107 94.864 30.4614 92.912 31.9494 90.908C31.1347 89.9653 30.2333 88.9213 29.2307 87.7613C28.5907 90.8587 27.9853 93.7933 27.38 96.728ZM78.036 23.628C77.0387 20.6387 76.0907 17.796 75.144 14.952L74.92 14.9933C74.6413 17.404 74.3613 19.8133 74.0787 22.2626C75.2307 22.66 76.5293 23.108 78.036 23.628ZM14.792 74.6867L14.912 74.8493C17.168 73.8746 19.424 72.9 21.7 71.9173C21.468 70.68 21.2147 69.3373 20.924 67.7933C18.808 70.1733 16.8 72.4293 14.792 74.6867ZM56.6626 20.9347C54.2706 18.808 52.0013 16.7907 49.732 14.7733L49.584 14.896C50.5627 17.168 51.5427 19.4413 52.528 21.7266C53.744 21.4947 55.0933 21.236 56.6626 20.9347ZM14.7373 49.3614C15.0386 49.48 15.1267 49.5373 15.2187 49.5466C17.188 49.7653 19.1587 49.9667 21.1253 50.1987C21.508 50.244 21.8746 50.4013 22.268 50.512C22.708 49.232 23.1747 47.88 23.692 46.38C20.652 47.3906 17.788 48.3454 14.7373 49.3614ZM27.7053 27.372L27.644 27.5293C27.828 27.684 28.0053 27.8493 28.2 27.992C29.6987 29.096 31.2053 30.1867 32.696 31.3013C32.9866 31.5213 33.2066 31.8333 33.4786 32.1227C34.5226 31.2187 35.612 30.2733 36.7947 29.2466C33.676 28.604 30.692 27.988 27.7053 27.372ZM91.6467 91.964C93.6573 93.5253 95.648 95.0707 97.6387 96.6173L97.8027 96.5147C96.872 93.7787 95.9427 91.0427 94.9907 88.24C93.8614 89.4987 92.776 90.7053 91.6467 91.964ZM72.8307 102.688C73.78 105.017 74.728 107.344 75.676 109.672L75.8986 109.661C76.4586 106.833 77.0187 104.007 77.588 101.139C75.948 101.672 74.4013 102.176 72.8307 102.688ZM102.579 73.264C105.096 73.6133 107.585 73.9587 110.073 74.304L110.177 74.1213C107.992 72.2053 105.809 70.2907 103.599 68.3533C103.249 70.0373 102.919 71.6293 102.579 73.264ZM50.1333 110.063L50.3027 110.177C52.2253 107.987 54.148 105.795 56.1 103.572C54.412 103.215 52.8 102.873 51.1747 102.529C50.8253 105.056 50.4787 107.559 50.1333 110.063ZM102.659 51.624C105.031 50.656 107.357 49.708 109.684 48.7587L109.671 48.5347C106.829 47.972 103.987 47.4094 101.081 46.8334C101.627 48.4907 102.136 50.0333 102.659 51.624ZM27.84 97.604L27.9267 97.796C30.704 96.852 33.48 95.908 36.3027 94.9493C34.9973 93.7733 33.7547 92.652 32.5333 91.552C30.9627 93.5773 29.4013 95.5907 27.84 97.604ZM91.9107 32.8746C93.4854 30.84 95.052 28.8173 96.6187 26.7933L96.5093 26.632C93.7253 27.5787 90.94 28.5253 88.1107 29.4867C89.4227 30.656 90.676 31.7733 91.9107 32.8746ZM21.8854 72.752C19.5187 73.7213 17.1333 74.7013 14.748 75.6813L14.784 75.8933C17.6573 76.464 20.532 77.0346 23.456 77.616C22.9187 75.9506 22.3974 74.3373 21.8854 72.752ZM68.2387 20.9653C69.968 21.3227 71.636 21.668 73.2587 22.004C73.6133 19.4173 73.96 16.888 74.3053 14.3614L74.1453 14.2466C72.188 16.4733 70.2293 18.7013 68.2387 20.9653ZM22.0574 51.1746C19.5014 50.828 16.936 50.4787 14.3693 50.1293L14.2613 50.2987C16.4987 52.2626 18.7347 54.228 20.988 56.2067C21.3614 54.4587 21.7134 52.7933 22.0574 51.1746ZM48.768 14.7746L48.5426 14.7707C47.968 17.6707 47.3906 20.5693 46.8066 23.5133C48.512 22.9546 50.1453 22.42 51.6986 21.912C50.7226 19.536 49.7466 17.1546 48.768 14.7746ZM29.528 36.4253C30.736 35.08 31.9053 33.78 32.9827 32.58C30.9174 30.9893 28.856 29.4053 26.796 27.82L26.6453 27.9293C27.6 30.7467 28.5573 33.5627 29.528 36.4253ZM112.527 90.6293L112.629 90.5013C108.561 86.8067 104.493 83.1133 100.369 79.368C99.792 80.5187 99.276 81.5427 98.744 82.5974C103.361 85.288 107.944 87.9586 112.527 90.6293ZM83.6613 98.1253C86.3187 102.772 88.956 107.384 91.5934 111.996L91.7346 111.933C90.06 106.697 88.384 101.463 86.6827 96.1427C85.612 96.8453 84.656 97.472 83.6613 98.1253ZM33.804 112.521L33.9307 112.621C37.6453 108.533 41.3586 104.445 45.112 100.313C43.9826 99.7413 42.9427 99.2147 41.8773 98.676C39.168 103.321 36.4853 107.921 33.804 112.521ZM90.644 11.8974L90.5107 11.804C86.7813 15.9107 83.052 20.016 79.2774 24.1733C80.4067 24.7373 81.452 25.26 82.5333 25.8013C85.256 21.1347 87.9493 16.516 90.644 11.8974ZM112.009 32.84L111.941 32.6947C106.665 34.384 101.391 36.0733 96.0547 37.7813C96.7747 38.8613 97.4227 39.832 98.0747 40.8093C102.764 38.1267 107.387 35.4827 112.009 32.84ZM28.42 86.6373C27.7053 85.5493 27.064 84.5733 26.4173 83.588C21.7227 86.2733 17.08 88.9307 12.4373 91.5867L12.5107 91.7266C17.772 90.044 23.0347 88.3587 28.42 86.6373ZM25.8827 41.9334C21.1854 39.1987 16.544 36.496 11.904 33.7933L11.812 33.9227C15.9306 37.664 20.0493 41.4067 24.2253 45.2C24.8 44.0667 25.3307 43.0214 25.8827 41.9334ZM62.8066 120.097L62.9027 120.115C64.0773 114.713 65.2506 109.312 66.448 103.8C65.1613 103.876 64.0013 103.944 62.8066 104.015C62.8066 109.421 62.8066 114.76 62.8066 120.097ZM104.011 61.6266C109.428 61.6266 114.775 61.6266 120.123 61.6266L120.143 61.5334C114.732 60.3587 109.321 59.1827 103.799 57.9813C103.872 59.248 103.939 60.3933 104.011 61.6266ZM37.828 28.5C38.9093 27.7854 39.8867 27.14 40.8867 26.4787C38.192 21.7707 35.52 17.104 32.848 12.4373L32.7093 12.504C34.4066 17.804 36.1013 23.104 37.828 28.5ZM4.32402 62.7906L4.30801 62.8947C9.76801 64.0827 15.2293 65.268 20.7893 66.476C20.7133 65.1893 20.644 64.004 20.572 62.7906C15.1093 62.7906 9.71602 62.7906 4.32402 62.7906ZM61.6413 4.33069L61.5373 4.3133C60.3506 9.7813 59.1627 15.2494 57.9587 20.7974C59.2827 20.7147 60.448 20.64 61.6413 20.5653C61.6413 15.1093 61.6413 9.72002 61.6413 4.33069ZM23.904 78.6893C19.5026 82.9453 15.1693 87.136 10.8373 91.3266L11.0173 91.5493C15.996 88.652 20.9746 85.7546 25.9733 82.844C25.3 81.492 24.656 80.2 23.904 78.6893ZM103.769 66.9293C109.728 65.8093 115.475 64.1506 121.219 62.488C115.492 62.488 109.764 62.488 104.029 62.488C103.941 63.9813 103.86 65.4026 103.769 66.9293ZM91.268 113.528L91.512 113.34C88.648 108.424 85.7854 103.507 82.9134 98.576C81.576 99.2467 80.2813 99.8973 78.7986 100.643C82.9986 104.983 87.1333 109.255 91.268 113.528ZM113.079 92.1453L113.207 91.876C108.248 89.0373 103.288 86.2 98.32 83.356C97.488 84.6227 96.7 85.8253 95.792 87.208C101.644 88.88 107.361 90.512 113.079 92.1453ZM113.608 33.0947L113.417 32.8813C108.455 35.7707 103.492 38.6587 98.5147 41.556C99.2 42.9067 99.8506 44.192 100.604 45.68C104.997 41.4293 109.304 37.2627 113.608 33.0947ZM57.5053 103.747C58.6173 109.692 60.2813 115.435 61.9373 121.175C61.9373 115.457 61.9373 109.741 61.9373 104.02C60.4493 103.928 59.0307 103.84 57.5053 103.747ZM32.2893 113.069L32.5747 113.165C35.4187 108.201 38.26 103.236 41.116 98.2493C39.868 97.4213 38.6627 96.62 37.2587 95.6893C35.584 101.549 33.936 107.309 32.2893 113.069ZM92.1507 11.3614L91.868 11.256C89.0146 16.2413 86.16 21.2253 83.2986 26.2253C84.5533 27.0493 85.7746 27.8493 87.1733 28.768C88.8573 22.8813 90.504 17.1214 92.1507 11.3614ZM45.788 23.9413C41.532 19.5386 37.3546 15.2187 33.176 10.8987L32.932 11.0906C35.8306 16.068 38.7293 21.0454 41.6333 26.0307C42.968 25.3587 44.2627 24.708 45.788 23.9413ZM67.1253 20.828C65.6307 14.864 64.168 9.02531 62.7053 3.18798L62.504 3.24397C62.504 9.01597 62.504 14.788 62.504 20.5573C63.9986 20.6453 65.424 20.728 67.1253 20.828ZM20.564 61.96C20.66 60.4186 20.7507 58.9747 20.8533 57.3054C14.8867 58.7987 9.03332 60.2626 3.18132 61.7266L3.22533 61.96C8.98799 61.96 14.752 61.96 20.564 61.96ZM11.332 32.2733L11.2253 32.5453C16.248 35.4213 21.2693 38.2947 26.2973 41.172C27.1413 39.8987 27.948 38.6786 28.8693 37.2853C22.94 35.5906 17.1373 33.932 11.332 32.2733ZM102.925 62.3453C102.959 39.9013 84.824 21.7094 62.3706 21.6587C39.936 21.6093 21.7253 39.7467 21.668 62.196C21.6093 84.6626 39.7867 102.899 62.2587 102.919C84.7053 102.937 102.893 84.792 102.925 62.3453ZM61.3907 123.309C60.864 121.317 60.3027 119.335 59.8173 117.335C58.8 113.132 57.8227 108.919 56.8267 104.711C56.8067 104.621 56.7547 104.537 56.6667 104.335C56.1427 104.907 55.6667 105.412 55.2053 105.929C53.7507 107.563 52.3013 109.203 50.8467 110.837C50.696 111.007 50.54 111.176 50.3667 111.32C49.6627 111.907 49.1894 111.815 48.888 110.952C47.8947 108.101 46.9373 105.24 45.9693 102.381C45.8427 102.009 45.7293 101.633 45.5693 101.127C44.2587 102.52 43.0387 103.808 41.828 105.107C38.5347 108.64 35.2493 112.181 31.9426 115.703C31.752 115.908 31.404 115.967 31.1293 116.093C31.0613 115.776 30.8693 115.425 30.944 115.145C31.876 111.621 32.8253 108.1 33.8147 104.592C34.62 101.74 35.4867 98.904 36.36 95.9453C35.98 96.044 35.6493 96.112 35.332 96.216C32.8973 97.0213 30.4653 97.8347 28.0307 98.64C27.792 98.72 27.548 98.796 27.3013 98.8307C26.512 98.9427 26.176 98.6546 26.312 97.8826C26.724 95.556 27.1707 93.236 27.6214 90.9173C27.8267 89.86 28.0747 88.812 28.3187 87.6826C28.124 87.6986 27.98 87.6853 27.8547 87.7253C24.276 88.84 20.704 89.976 17.1214 91.0746C14.5014 91.88 11.8693 92.648 9.23464 93.404C8.9693 93.48 8.64398 93.3533 8.34531 93.3213C8.43465 93.0333 8.43866 92.664 8.62533 92.468C10.2227 90.7933 11.8133 89.108 13.4813 87.504C16.548 84.5573 19.6654 81.6653 22.76 78.7493C22.8134 78.7 22.8506 78.6333 22.9986 78.44C21.732 78.1893 20.5427 77.964 19.36 77.716C17.588 77.3466 15.812 76.988 14.052 76.5746C12.8467 76.292 12.6814 75.7987 13.4907 74.8587C15.4454 72.5907 17.4373 70.3547 19.416 68.1067C19.644 67.8467 19.8813 67.5946 20.1986 67.2493C18.2866 66.7973 16.488 66.364 14.6854 65.9493C10.0294 64.8773 5.36932 63.8214 0.717318 62.7334C0.450651 62.6707 0.238667 62.38 0 62.1947C0.230667 61.9947 0.430664 61.6827 0.697331 61.6093C3.77466 60.7587 6.85332 59.9053 9.95065 59.132C13.22 58.3133 16.5107 57.58 19.7907 56.808C19.8574 56.792 19.916 56.7413 20.0854 56.648C19.7307 56.3133 19.4187 56.004 19.0907 55.7133C17.2667 54.092 15.4386 52.4746 13.6146 50.8546C13.464 50.7213 13.316 50.5827 13.1827 50.4334C12.504 49.68 12.584 49.192 13.528 48.864C16.4733 47.84 19.432 46.8547 22.3867 45.856C22.644 45.768 22.9026 45.6866 23.2453 45.5746C23.0706 45.3773 22.956 45.2267 22.8187 45.1C18.148 40.7387 13.4706 36.3826 8.81198 32.008C8.57998 31.7893 8.50666 31.3986 8.35866 31.088C8.70666 31.0426 9.08663 30.8814 9.39863 30.9667C13.7186 32.1347 18.0346 33.3227 22.3426 34.5387C24.2546 35.0787 26.1453 35.6933 28.0453 36.2707C28.1546 36.304 28.276 36.3013 28.5333 36.3347C28.3133 35.6467 28.132 35.0573 27.9373 34.4707C27.216 32.3 26.488 30.1306 25.7733 27.9573C25.6813 27.6733 25.6093 27.372 25.5947 27.076C25.5667 26.4827 25.832 26.1653 26.4706 26.284C28.816 26.7253 31.1653 27.1587 33.5093 27.612C34.5666 27.8173 35.6147 28.0653 36.7867 28.32C36.7227 28.0307 36.692 27.8226 36.6307 27.6266C35.3453 23.5227 34.0413 19.424 32.7747 15.3147C32.152 13.296 31.584 11.2627 31.024 9.22535C30.9507 8.95868 31.08 8.63466 31.1147 8.33733C31.4027 8.42666 31.7733 8.43198 31.9667 8.61864C33.8827 10.4733 35.8067 12.324 37.656 14.244C40.364 17.0506 43.0134 19.9133 45.688 22.752C45.7374 22.804 45.8053 22.8387 45.992 22.976C46.2413 21.7387 46.4693 20.5747 46.7093 19.412C47.0786 17.64 47.4307 15.8667 47.8387 14.104C48.1293 12.844 48.628 12.664 49.588 13.492C51.912 15.4987 54.2027 17.5413 56.508 19.5707C56.7067 19.7467 56.904 19.9253 57.2013 20.192C57.752 17.792 58.268 15.5213 58.7907 13.252C59.7547 9.06264 60.7147 4.87334 61.7 0.689346C61.76 0.434677 62.02 0.228027 62.1867 2.28882e-05C62.3973 0.210693 62.732 0.386665 62.8027 0.637329C63.5867 3.42 64.3693 6.20396 65.0706 9.00797C65.9586 12.5693 66.768 16.1493 67.6147 19.7213C67.6373 19.812 67.692 19.8933 67.7786 20.088C68.3027 19.5186 68.7773 19.012 69.24 18.4947C70.6786 16.8787 72.1106 15.2573 73.548 13.64C73.7147 13.452 73.8853 13.2627 74.0787 13.1027C74.7813 12.5187 75.2547 12.612 75.556 13.4787C76.5493 16.328 77.5066 19.1906 78.476 22.0493C78.6 22.42 78.7133 22.796 78.8733 23.2987C80.1666 21.924 81.3706 20.6547 82.5653 19.3733C85.876 15.8213 89.1786 12.2613 92.5013 8.72131C92.6933 8.51598 93.04 8.46002 93.316 8.33336C93.3827 8.65202 93.572 9.00401 93.4973 9.284C92.5653 12.808 91.616 16.328 90.6267 19.8373C89.8214 22.688 88.9547 25.5226 88.0813 28.4826C88.464 28.3813 88.7933 28.312 89.112 28.208C91.5467 27.4026 93.9787 26.5907 96.4146 25.784C96.652 25.7053 96.896 25.628 97.144 25.5947C97.932 25.4854 98.2667 25.772 98.128 26.544C97.664 29.116 97.1653 31.6826 96.6667 34.2493C96.5093 35.0586 96.3134 35.8613 96.116 36.752C96.3454 36.72 96.5107 36.7213 96.66 36.6746C100.549 35.456 104.431 34.216 108.325 33.0186C110.633 32.308 112.957 31.6507 115.281 31C115.525 30.932 115.824 31.068 116.097 31.1093C116.025 31.3773 116.035 31.7254 115.867 31.9027C114.268 33.58 112.683 35.268 111.015 36.872C107.931 39.836 104.793 42.7453 101.68 45.6787C101.628 45.728 101.589 45.7933 101.443 45.9867C102.709 46.2373 103.899 46.464 105.083 46.7106C106.855 47.08 108.629 47.4373 110.391 47.852C111.597 48.136 111.761 48.628 110.952 49.5694C108.997 51.8374 107.005 54.0733 105.028 56.3213C104.799 56.5813 104.56 56.8333 104.244 57.1787C106.155 57.6293 107.953 58.064 109.756 58.4787C114.413 59.5493 119.072 60.6067 123.724 61.6947C123.991 61.756 124.203 62.048 124.441 62.2334C124.211 62.4334 124.009 62.744 123.744 62.8173C120.665 63.6667 117.588 64.5213 114.489 65.2947C111.22 66.112 107.931 66.8453 104.651 67.6186C104.584 67.6346 104.525 67.6866 104.188 67.8746C104.54 68.108 104.832 68.2547 105.069 68.464C107.013 70.1773 108.948 71.9013 110.883 73.624C111.051 73.7746 111.221 73.9294 111.361 74.1054C111.905 74.7934 111.813 75.244 110.983 75.5334C108.037 76.5587 105.08 77.5453 102.125 78.5466C101.845 78.6413 101.563 78.7306 101.195 78.852C101.371 79.0493 101.485 79.2 101.621 79.3253C106.293 83.688 110.971 88.0426 115.629 92.4186C115.863 92.6373 115.935 93.0267 116.084 93.3373C115.736 93.3827 115.357 93.544 115.044 93.46C110.724 92.2906 106.408 91.1026 102.099 89.888C100.212 89.356 98.3453 88.7493 96.468 88.1813C96.3346 88.14 96.192 88.1307 95.9053 88.0813C96.188 88.9467 96.4307 89.7013 96.68 90.4546C97.3347 92.4346 97.996 94.4133 98.6467 96.396C98.7334 96.6586 98.8133 96.928 98.844 97.2C98.924 97.9507 98.6493 98.2493 97.8973 98.1227C96.064 97.8147 94.2346 97.476 92.4093 97.1173C90.86 96.8133 89.3173 96.468 87.64 96.112C87.724 96.4507 87.776 96.7027 87.852 96.948C89.2174 101.316 90.596 105.681 91.9467 110.055C92.4747 111.759 92.9534 113.479 93.4187 115.203C93.4894 115.471 93.3613 115.792 93.3253 116.089C93.036 115.999 92.664 115.995 92.4747 115.805C89.9027 113.253 87.3387 110.692 84.8107 108.097C82.7053 105.94 80.6494 103.733 78.4547 101.425C78.2 102.688 77.9733 103.853 77.7307 105.016C77.364 106.788 77.0093 108.563 76.6027 110.325C76.312 111.583 75.812 111.761 74.8533 110.933C72.5293 108.927 70.2373 106.883 67.9333 104.855C67.7333 104.679 67.5333 104.501 67.2373 104.237C66.712 106.541 66.224 108.715 65.7214 110.887C64.816 114.804 63.9026 118.721 62.996 122.64C62.9453 122.859 62.9306 123.085 62.9013 123.309C62.3973 123.309 61.8934 123.309 61.3907 123.309Z" fill="#a8782f"/>
</svg>
